<svg width="467" height="529" viewBox="0 0 467 529" fill="none" xmlns="http://www.w3.org/2000/svg">
<path d="M424.143 31H209.857C186.286 31 167 50.3 167 73.8889V417L317 352.667L467 417V73.8889C467 50.3 447.714 31 424.143 31Z" fill="black" fill-opacity="0.23"/>
<path d="M398.142 2H183.857C160.285 2 141 21.3 141 44.8889V388L291 323.667L441 388V44.8889C441 21.3 421.714 2 398.142 2Z" fill="white"/>
<path d="M140 388V389.517L141.394 388.919L291 324.755L440.605 388.919L442 389.517V388V44.8889C442 20.7484 422.267 1 398.142 1H183.857C159.732 1 140 20.7484 140 44.8889V388Z" stroke="black" stroke-opacity="0.5" stroke-width="2"/>
<path d="M52.7751 353.732L163.334 309.529L75.5463 376.709L52.7751 353.732V353.732ZM219.901 366.302L175.698 476.861L152.824 453.987L219.901 366.302V366.302ZM0.947519 343.119L72.9704 415.348L248.133 281.4L114.185 456.563L186.414 528.586L309.956 219.578L0.947519 343.119Z" fill="#515151" fill-opacity="0.53"/>
<circle cx="291.5" cy="194.5" r="7.5" fill="black" fill-opacity="0.12"/>
<path d="M49.2033 320.974L153.957 279.092L70.7787 342.744L49.2033 320.974V320.974ZM207.554 332.884L165.672 437.637L143.999 415.964L207.554 332.884V332.884ZM0.0971381 310.918L68.3381 379.354L234.303 252.44L107.389 418.405L175.825 486.646L292.879 193.864L0.0971381 310.918Z" fill="#0075FF"/>
</svg>
